<svg xmlns="http://www.w3.org/2000/svg" width="126" height="42" fill="none"><g fill="#3E4A5B" clip-path="url(#a)"><path d="M33.733 34.759c0 .14-.127.241-.267.241h-3.597a.933.933 0 0 1-.933-.933V21.919c0-.209.218-.346.402-.248 1.366.787 2.731 1.583 4.097 2.362.185.104.306.2.306.45-.008 3.423-.008 6.845-.008 10.276zM28.39 18.936a.934.934 0 0 1-1.402.808c-1.093-.632-2.168-1.253-3.234-1.873a.382.382 0 0 1-.153-.282c0-3.503 0-7.006.008-10.509 0-.045.055-.072.1-.072h3.747c.516 0 .934.418.934.933v10.995zm1.923.817a.934.934 0 0 1-1.402-.808c-.001-1.254 0-2.476.017-3.694 0-.144.169-.345.313-.433 2.636-1.535 5.279-3.054 7.914-4.58l.32-.186a.918.918 0 0 1 1.258.338c.493.851.983 1.703 1.482 2.567a.934.934 0 0 1-.34 1.276c-3.18 1.84-6.353 3.666-9.562 5.52zm-11.155 12.59a.157.157 0 0 1-.18-.066c-.622-1.074-1.24-2.145-1.868-3.234a.933.933 0 0 1 .342-1.275c3.43-1.98 6.853-3.955 10.322-5.96.284-.165.64.04.64.369 0 1.502.008 2.997-.008 4.5 0 .152-.097.377-.217.441-3 1.75-6.01 3.482-9.01 5.215a.081.081 0 0 1-.021.01zM30.57 21.811a.935.935 0 0 1-.003-1.618 573.86 573.86 0 0 1 1.848-1.069c.345-.2.715-.37 1.036-.61.378-.282.683-.226 1.077 0 2.828 1.655 5.664 3.285 8.5 4.925.17.108.226.33.125.505-.582 1.011-1.165 2.02-1.755 3.041a.934.934 0 0 1-1.275.342c-3.179-1.835-6.346-3.666-9.553-5.516zm-3.81-1.615a.934.934 0 0 1 0 1.616c-1.1.636-2.173 1.256-3.255 1.867a.44.44 0 0 1-.362-.016 1885.42 1885.42 0 0 1-9.03-5.214c-.082-.04-.081-.16-.036-.238.616-1.064 1.228-2.124 1.85-3.202a.933.933 0 0 1 1.276-.341c3.186 1.846 6.354 3.674 9.558 5.528z"/></g><path fill="#3E4A5B" d="M108.165 27.674c-.729 0-1.346-.138-1.851-.412a2.913 2.913 0 0 1-1.149-1.112 3.084 3.084 0 0 1-.383-1.523c0-.486.081-.922.243-1.308.162-.393.411-.73.747-1.01.337-.286.773-.52 1.309-.7.405-.131.878-.25 1.42-.356.548-.105 1.14-.202 1.776-.29.641-.093 1.311-.193 2.009-.298l-.804.457c.006-.697-.149-1.211-.467-1.541-.318-.33-.854-.496-1.607-.496-.455 0-.894.106-1.318.318-.424.212-.72.576-.888 1.093l-2.056-.644a3.819 3.819 0 0 1 1.421-2.056c.704-.517 1.651-.776 2.841-.776.897 0 1.685.146 2.364.44a2.936 2.936 0 0 1 1.523 1.438c.181.355.29.72.327 1.094.038.367.056.77.056 1.205v6.196h-1.972v-2.187l.328.355c-.455.73-.988 1.265-1.598 1.608-.605.336-1.362.505-2.271.505zm.448-1.795c.511 0 .947-.09 1.309-.27a2.58 2.58 0 0 0 .859-.664c.218-.262.365-.508.44-.739.118-.286.183-.613.196-.98.018-.375.028-.677.028-.907l.691.205c-.679.106-1.261.2-1.747.28-.486.082-.904.16-1.252.234a7.992 7.992 0 0 0-.926.234 2.88 2.88 0 0 0-.663.327 1.45 1.45 0 0 0-.421.43c-.093.162-.14.352-.14.57 0 .25.062.47.187.663a1.3 1.3 0 0 0 .542.449c.243.112.542.168.897.168zm-7.96 1.514v-6.13c0-.692-.172-1.23-.514-1.617-.343-.392-.807-.589-1.393-.589-.361 0-.685.084-.972.253a1.721 1.721 0 0 0-.682.729c-.168.317-.252.697-.252 1.14l-1-.59c-.007-.697.15-1.31.467-1.84.324-.536.76-.953 1.308-1.252a3.761 3.761 0 0 1 1.832-.449c1.115 0 1.969.337 2.561 1.01.598.666.897 1.544.897 2.635v6.7h-2.252zm-12.14 0V17.3h1.99v3.131h.281v6.962h-2.27zm6.084 0v-6.102c0-.704-.171-1.253-.514-1.645-.343-.392-.81-.589-1.402-.589-.573 0-1.034.197-1.383.589-.343.392-.514.903-.514 1.533l-1.01-.673c0-.654.163-1.243.487-1.766a3.46 3.46 0 0 1 1.308-1.234 3.79 3.79 0 0 1 1.86-.458c.754 0 1.383.162 1.888.486.51.318.89.754 1.14 1.308.255.549.383 1.169.383 1.86v6.691h-2.243zm-13.34 4.767c-.56 0-1.1-.088-1.616-.262a4.525 4.525 0 0 1-1.383-.758 3.991 3.991 0 0 1-1.01-1.177l2.075-1.028c.193.368.464.639.813.813.355.18.732.271 1.13.271.468 0 .885-.084 1.253-.252.368-.162.651-.405.85-.73.206-.317.303-.716.29-1.195v-2.87h.28V17.3h1.972v10.58c0 .255-.012.498-.037.728a4.988 4.988 0 0 1-.103.691c-.15.655-.436 1.19-.86 1.608-.423.424-.95.738-1.579.944a6.593 6.593 0 0 1-2.075.308zm-.196-4.486c-.928 0-1.738-.234-2.43-.701-.691-.468-1.227-1.103-1.607-1.907-.38-.803-.57-1.71-.57-2.72 0-1.021.19-1.93.57-2.728.386-.804.932-1.436 1.636-1.897.704-.467 1.532-.701 2.485-.701.96 0 1.764.234 2.411.7.655.462 1.15 1.094 1.486 1.898.337.804.505 1.713.505 2.729 0 1.003-.168 1.91-.505 2.72-.336.803-.838 1.438-1.504 1.906-.667.467-1.492.7-2.477.7zm.346-2.02c.604 0 1.09-.136 1.458-.41.374-.28.645-.67.813-1.168.174-.499.262-1.075.262-1.73 0-.66-.088-1.236-.262-1.728-.168-.498-.433-.885-.794-1.159-.362-.28-.829-.42-1.402-.42-.605 0-1.103.15-1.495.448a2.56 2.56 0 0 0-.87 1.196 4.706 4.706 0 0 0-.28 1.664c0 .616.09 1.177.271 1.682.187.498.47.894.85 1.187.38.293.863.439 1.449.439zm-9.444-9.886v-2.066h2.253v2.066h-2.253zm0 11.625V17.3h2.253v10.093h-2.253zm-4.905 0v-4.86c0-.317-.022-.669-.066-1.055a3.65 3.65 0 0 0-.308-1.112 2.108 2.108 0 0 0-.71-.888c-.312-.23-.736-.346-1.271-.346-.287 0-.57.047-.85.14a1.959 1.959 0 0 0-.767.486c-.224.225-.405.536-.542.935-.137.392-.206.897-.206 1.514l-1.336-.57c0-.86.165-1.639.495-2.337a3.976 3.976 0 0 1 1.477-1.663c.648-.418 1.445-.626 2.392-.626.748 0 1.365.124 1.85.373.486.25.873.567 1.16.954.286.386.498.797.635 1.233.137.436.224.85.261 1.243.044.387.066.701.066.944v5.635h-2.28zm-7 0V17.3h2.01v3.131h.27v6.962h-2.28zm-10.914 0V13.936h8.69v2.112h-6.438v3.318h5.317v2.112h-5.317v3.803h6.438v2.112h-8.69z"/><defs><clipPath id="a"><path fill="#fff" d="M14 7h29.334v28H14z"/></clipPath></defs></svg>