<svg xmlns="http://www.w3.org/2000/svg" width="70" height="70" fill="none"><g clip-path="url(#a)"><g fill="#1D1D1D" clip-path="url(#b)"><path d="M58.167 23.615c4.616 5.684 3.858 18.465-1.413 26.043-3.858 5.547-9.128 9.164-15.674 10.783-6.58 1.585-12.883.551-19.05-2.584-.999 2.584-1.963 5.03-2.79 7.476-.104.31.517 1.068.93 1.274 8.991 4.03 18.12 4.65 27.421.965 24.183-9.543 27.628-37.136 15.95-52.982-2.48-3.342-5.65-6.477-8.061-7.58a55970.652 55970.652 0 0 1-15.51 41.227 1.007 1.007 0 0 0 .936 1.36c2.343.02 4.543.067 6.72-.076.482-.035 1.068-1.068 1.343-1.757 2.86-7.51 5.684-15.02 8.509-22.53.207-.482.413-.964.689-1.619zM14.486 63.162c5.239-13.947 10.348-27.604 15.578-41.502a1.007 1.007 0 0 0-.936-1.36c-2.333-.018-4.509-.06-6.684.111-.552.035-1.172 1.137-1.447 1.86-2.86 7.51-5.684 15.02-8.51 22.53-.171.482-.378.93-.585 1.447-3.341-3.48-5.064-15.64.62-24.803 3.72-5.995 8.957-9.922 15.743-11.782 5.926-1.653 8.957-1.275 19.774 2.308.93-2.411 1.895-4.857 2.722-7.337.103-.31-.552-1.137-1-1.275C46.214 2.257 42.7.741 39.083.259 23.822-1.774 9.078 6.839 2.877 21.03-3.221 35.05.569 51.552 12.212 61.404c.655.586 1.378 1.068 2.274 1.757z"/><path d="M25.38 49.267c.072.177.262.392.454.393 2.338.01 4.676.128 7.013-.07.62-.069 1.447-1.033 1.723-1.791 3.135-8.13 6.166-16.294 9.198-24.459.56-1.459-.56-3.035-2.124-3.039a181.65 181.65 0 0 0-5.076.042c-.31 0-.689.586-.861.965-3.458 9.242-6.88 18.45-10.304 27.692-.042.113-.07.155-.024.267z"/></g></g><defs><clipPath id="a"><path fill="#fff" d="M0 0h70v70H0z"/></clipPath><clipPath id="b"><path fill="#fff" d="M70.018 70.018V-.016h-70v70.034z"/></clipPath></defs></svg>