<svg xmlns="http://www.w3.org/2000/svg" width="126" height="42" fill="none"><g fill="#3E4A5B" clip-path="url(#a)"><path d="M18.327 8.468c6.133-3.44 14.895-.62 19.573 6.305 4.679 6.923 3.502 15.322-2.628 18.762 5.212-2.923 6.212-10.066 2.235-15.95-3.977-5.883-11.428-8.282-16.637-5.359-5.213 2.926-6.212 10.066-2.239 15.953 3.977 5.883 11.425 8.282 16.637 5.356-6.133 3.443-14.895.62-19.573-6.304-4.675-6.92-3.498-15.323 2.632-18.763z"/><path d="M22.886 10.693c5.024-2.82 12.204-.507 16.034 5.165 3.834 5.67 2.868 12.554-2.156 15.374 4.271-2.396 5.09-8.249 1.831-13.068-3.255-4.819-9.36-6.787-13.628-4.39-4.272 2.395-5.09 8.248-1.831 13.07 3.258 4.822 9.36 6.787 13.631 4.388-5.024 2.82-12.204.51-16.034-5.165-3.833-5.671-2.868-12.557 2.156-15.374h-.003z"/><path d="M29.943 10.467c5.326.335 10.203 4.963 10.89 10.336.685 5.374-3.076 9.457-8.402 9.125 4.528.284 7.725-3.187 7.143-7.756-.585-4.569-4.726-8.502-9.254-8.786-4.529-.284-7.729 3.187-7.143 7.756.585 4.57 4.73 8.502 9.254 8.786-5.325-.336-10.199-4.963-10.887-10.336-.688-5.374 3.073-9.457 8.402-9.125h-.003z"/><path d="M35.532 12.64c4.213 2.53 6.202 7.674 4.446 11.486-1.76 3.813-6.599 4.854-10.812 2.324 3.583 2.15 7.697 1.267 9.19-1.974 1.495-3.242-.199-7.612-3.779-9.765-3.583-2.15-7.697-1.266-9.19 1.975-1.495 3.241.196 7.612 3.78 9.761-4.214-2.53-6.203-7.673-4.443-11.486 1.759-3.813 6.598-4.853 10.811-2.324l-.003.003z"/></g><path fill="#3E4A5B" d="M107.649 29.408c-.758 0-1.4-.143-1.925-.428a3.025 3.025 0 0 1-1.196-1.157 3.214 3.214 0 0 1-.399-1.586c0-.505.084-.96.253-1.361a2.68 2.68 0 0 1 .778-1.05c.35-.299.804-.542 1.361-.73a13.13 13.13 0 0 1 1.478-.37c.571-.11 1.187-.21 1.848-.3.668-.098 1.365-.202 2.091-.312l-.836.477c.006-.727-.156-1.261-.487-1.605-.33-.344-.888-.515-1.672-.515-.474 0-.931.11-1.372.33-.44.22-.748.6-.923 1.138l-2.14-.671a3.979 3.979 0 0 1 1.478-2.14c.733-.538 1.718-.807 2.957-.807.933 0 1.753.153 2.46.457a3.053 3.053 0 0 1 1.585 1.498c.188.37.302.749.341 1.138.038.382.058.8.058 1.254v6.448h-2.052V26.84l.34.37c-.473.758-1.027 1.316-1.663 1.673-.628.35-1.416.525-2.363.525zm.467-1.867c.532 0 .986-.095 1.362-.282.376-.189.674-.419.894-.69.227-.273.38-.53.457-.77.123-.297.192-.638.205-1.02.019-.39.029-.704.029-.944l.719.214c-.706.11-1.313.208-1.818.292-.506.084-.94.165-1.303.243a8.332 8.332 0 0 0-.963.243 2.99 2.99 0 0 0-.691.34 1.51 1.51 0 0 0-.437.448 1.169 1.169 0 0 0-.146.593c0 .26.065.49.194.69.13.195.318.35.564.468.253.116.565.175.934.175zm-8.314 1.575v-5.057c0-.33-.023-.697-.068-1.099a3.8 3.8 0 0 0-.321-1.157 2.195 2.195 0 0 0-.74-.924c-.323-.24-.764-.36-1.322-.36-.298 0-.593.049-.885.146a2.031 2.031 0 0 0-.797.506c-.233.233-.421.557-.564.972-.143.409-.214.934-.214 1.576l-1.39-.593c0-.895.171-1.706.515-2.432a4.138 4.138 0 0 1 1.536-1.73c.674-.435 1.504-.652 2.49-.652.778 0 1.42.13 1.925.389.506.26.908.59 1.206.992.298.402.519.83.661 1.283.143.454.234.885.273 1.294.045.402.068.73.068.982v5.864h-2.373zm-7.284 0V18.613h2.09v3.258h.283v7.245h-2.373zM87.28 17.018V14.87h2.344v2.15h-2.343zm0 12.098V18.613h2.344v10.503h-2.343zm-5.074 0v-6.38c0-.72-.178-1.28-.535-1.682-.357-.408-.84-.613-1.45-.613a1.96 1.96 0 0 0-1.01.263 1.792 1.792 0 0 0-.71.758c-.175.331-.263.727-.263 1.187l-1.04-.613c-.007-.726.155-1.364.486-1.916a3.553 3.553 0 0 1 1.361-1.303 3.915 3.915 0 0 1 1.906-.466c1.16 0 2.049.35 2.665 1.05.622.694.933 1.608.933 2.742v6.973h-2.343zm-12.633 0V18.613h2.072v3.258h.291v7.245h-2.363zm6.331 0v-6.35c0-.733-.178-1.303-.535-1.712-.356-.408-.843-.613-1.459-.613-.596 0-1.076.205-1.439.613-.356.409-.535.94-.535 1.595l-1.05-.7c0-.681.169-1.294.506-1.838a3.59 3.59 0 0 1 1.361-1.284 3.944 3.944 0 0 1 1.936-.476c.784 0 1.439.168 1.964.505.531.33.927.785 1.186 1.362.266.57.4 1.215.4 1.935v6.963h-2.335zm-14.548.301c-.778 0-1.42-.13-1.925-.389a3.4 3.4 0 0 1-1.206-.991 4.317 4.317 0 0 1-.662-1.284 6.875 6.875 0 0 1-.282-1.284 11.24 11.24 0 0 1-.058-.992v-5.864h2.373v5.057c0 .324.023.69.068 1.099.045.402.15.79.311 1.167.169.37.415.674.74.914.33.24.774.36 1.332.36.298 0 .593-.049.885-.146a2 2 0 0 0 .787-.496c.24-.24.431-.567.574-.982.143-.415.214-.94.214-1.576l1.39.594c0 .894-.174 1.705-.525 2.43a4.135 4.135 0 0 1-1.526 1.742c-.674.427-1.504.641-2.49.641zm3.433-.301v-3.258h-.282v-7.245h2.353v10.503h-2.07zm-17.547 0V15.112h2.343v11.806h6.185v2.198h-8.528z"/><defs><clipPath id="a"><path fill="#fff" d="M12.834 7h28.435v28H12.834z"/></clipPath></defs></svg>