<svg xmlns="http://www.w3.org/2000/svg" width="126" height="42" fill="none"><g fill="#3E4A5B" clip-path="url(#a)"><path d="M12.834 29.997V35l17.12-7.652v-5.002l-17.12 7.651zm0-17.994V7l17.12 7.652v5.002l-17.12-7.651z"/><path d="M12.834 19.657v-5.003l17.12 7.652v5.005l-17.12-7.654z"/></g><path fill="#3E4A5B" d="m105.303 31.027 2.067-5.675.039 1.67-4.68-11.5h2.494l3.319 8.508h-.636l3.23-8.507h2.396l-5.983 15.504h-2.246zm-9.148.298a5.34 5.34 0 0 1-1.72-.278 4.812 4.812 0 0 1-1.47-.805 4.246 4.246 0 0 1-1.073-1.253l2.206-1.093c.205.391.494.68.865.865.377.192.778.288 1.202.288.497 0 .941-.09 1.332-.268a1.97 1.97 0 0 0 .904-.775c.219-.338.322-.762.308-1.273v-3.05h.298v-8.16h2.098v11.25c0 .272-.014.53-.04.775-.02.252-.057.497-.11.736-.159.696-.463 1.265-.914 1.71-.45.45-1.01.784-1.68 1.003-.662.219-1.398.328-2.206.328zm-.209-4.77c-.987 0-1.848-.249-2.584-.746-.735-.497-1.305-1.173-1.709-2.027-.404-.855-.606-1.819-.606-2.892 0-1.087.202-2.054.606-2.902.41-.855.99-1.528 1.74-2.018.748-.497 1.63-.745 2.643-.745 1.02 0 1.875.248 2.564.745.696.49 1.223 1.163 1.58 2.018.358.854.537 1.822.537 2.902 0 1.066-.179 2.03-.537 2.892-.358.854-.89 1.53-1.6 2.027-.709.497-1.587.745-2.633.745zm.368-2.147c.643 0 1.16-.146 1.55-.438.398-.298.686-.712.865-1.242.186-.53.278-1.143.278-1.838 0-.703-.092-1.316-.278-1.839-.179-.53-.46-.94-.844-1.232-.385-.299-.882-.448-1.491-.448-.643 0-1.173.16-1.59.478-.418.31-.726.735-.925 1.272a5.004 5.004 0 0 0-.298 1.769c0 .655.096 1.252.288 1.788.2.53.5.951.905 1.263.404.311.917.467 1.54.467zm-12.222 1.848V15.523h2.117v2.614l-.258-.338a3.83 3.83 0 0 1 .527-.974c.225-.298.493-.543.805-.735.264-.18.556-.319.874-.418a3.93 3.93 0 0 1 .994-.189c.338-.026.666-.013.984.04v2.236a3.072 3.072 0 0 0-1.103-.09c-.411.034-.782.15-1.113.348a2.502 2.502 0 0 0-.815.686 2.892 2.892 0 0 0-.457.954c-.1.352-.15.733-.15 1.143v5.456h-2.405zm-7.077.299c-1.087 0-2.04-.236-2.862-.706a5.025 5.025 0 0 1-1.928-1.958c-.457-.835-.686-1.795-.686-2.882 0-1.173.225-2.19.676-3.051a4.937 4.937 0 0 1 1.878-2.018c.802-.477 1.73-.715 2.783-.715 1.113 0 2.057.261 2.832.785.782.517 1.362 1.249 1.74 2.196.377.948.52 2.064.427 3.35H79.5v-.875c-.007-1.166-.212-2.018-.617-2.554-.404-.537-1.04-.805-1.908-.805-.98 0-1.709.305-2.186.914-.477.603-.716 1.488-.716 2.654 0 1.086.239 1.928.716 2.524.477.596 1.173.894 2.087.894.59 0 1.096-.129 1.52-.387.431-.265.763-.646.994-1.143l2.366.716c-.411.967-1.047 1.719-1.908 2.256a5.22 5.22 0 0 1-2.833.805zm-3.697-5v-1.808h7.384v1.808h-7.384zm-6.027 4.701v-5.168c0-.338-.023-.712-.07-1.123a3.882 3.882 0 0 0-.327-1.182 2.242 2.242 0 0 0-.755-.944c-.332-.246-.782-.368-1.352-.368-.305 0-.606.05-.904.149-.299.1-.57.272-.815.517-.239.238-.431.57-.577.994-.145.417-.218.954-.218 1.61l-1.422-.607c0-.914.176-1.742.527-2.484a4.229 4.229 0 0 1 1.57-1.77c.69-.443 1.538-.665 2.545-.665.795 0 1.45.132 1.968.397.516.265.927.603 1.232 1.014.305.41.53.848.676 1.312.145.464.238.904.278 1.322.046.41.07.745.07 1.003v5.993h-2.425zm-7.443 0V15.523h2.136v3.33h.289v7.403h-2.425zm-9.692 4.771 2.067-5.675.04 1.67-4.681-11.5h2.495l3.319 8.508h-.636l3.23-8.507h2.395l-5.983 15.504h-2.246zm-8.983-4.472c-1.047 0-1.991-.183-2.833-.547a5.35 5.35 0 0 1-2.067-1.56c-.537-.683-.878-1.491-1.024-2.425l2.485-.378c.212.848.646 1.504 1.302 1.968.663.464 1.425.695 2.286.695.51 0 .99-.079 1.44-.238.452-.16.816-.391 1.094-.696a1.58 1.58 0 0 0 .427-1.123c0-.199-.033-.38-.099-.546a1.3 1.3 0 0 0-.298-.458 1.846 1.846 0 0 0-.497-.357 3.374 3.374 0 0 0-.696-.289l-3.697-1.093a10.408 10.408 0 0 1-1.033-.367 4.451 4.451 0 0 1-1.044-.646 3.322 3.322 0 0 1-.805-1.054c-.205-.43-.308-.96-.308-1.59 0-.921.232-1.693.696-2.316.47-.63 1.1-1.1 1.888-1.411.795-.311 1.676-.464 2.644-.457.98.007 1.855.175 2.623.507a4.983 4.983 0 0 1 1.928 1.42c.517.624.882 1.376 1.094 2.257l-2.574.447a2.794 2.794 0 0 0-.617-1.282 2.875 2.875 0 0 0-1.103-.815 3.712 3.712 0 0 0-2.713-.08 2.392 2.392 0 0 0-.984.637 1.427 1.427 0 0 0-.367.974c0 .35.105.639.318.864.211.219.473.395.785.527.318.126.639.232.964.318l2.564.716c.35.092.745.218 1.182.377.438.16.858.381 1.263.666.404.285.735.66.993 1.123.266.464.398 1.054.398 1.77 0 .741-.156 1.394-.467 1.957a4.1 4.1 0 0 1-1.242 1.391 5.682 5.682 0 0 1-1.8.835 7.852 7.852 0 0 1-2.106.279z"/><defs><clipPath id="a"><path fill="#fff" d="M12.834 7h17.121v28H12.834z"/></clipPath></defs></svg>