<svg xmlns="http://www.w3.org/2000/svg" width="126" height="42" fill="none"><g fill="#3E4A5B" fill-rule="evenodd" clip-path="url(#a)" clip-rule="evenodd"><path d="M14.033 30.277c-6.844-6.061-5.936-15.9.926-20.777 4.82-3.421 12.16-3.843 16.832 1.992 3.31 4.134 3.537 10.08 1.44 13.668-1.315 2.242-4.334 3.9-6.182 1.686-1.68-2.01.195-3.792.852-6.14 2.348-8.413-9.298-14.373-15.433-6.279-3.13 4.13-2.954 10.497 1.565 15.85z"/><path d="M35.5 11.922c6.704 6.219 5.57 16.035-1.403 20.749-4.9 3.31-12.243 3.56-16.78-2.375-3.22-4.214-3.307-10.164-1.126-13.702 1.366-2.209 4.422-3.801 6.223-1.542 1.635 2.047-.287 3.788-.995 6.117-2.538 8.363 8.964 14.59 15.284 6.635 3.223-4.056 3.195-10.432-1.199-15.882H35.5z"/></g><path fill="#3E4A5B" d="m109.217 31.85 1.904-5.227.036 1.538-4.311-10.591h2.297l3.058 7.836h-.586l2.975-7.836h2.206l-5.511 14.28h-2.068zm-3.158-4.394a9.012 9.012 0 0 1-1.922.156c-.622-.012-1.181-.125-1.675-.339a2.322 2.322 0 0 1-1.126-1.034 2.943 2.943 0 0 1-.357-1.31 56.65 56.65 0 0 1-.018-1.51v-8.595h2.197v8.467c0 .397.003.745.009 1.044.012.299.076.543.192.732.22.366.571.57 1.053.613a7.067 7.067 0 0 0 1.647-.073v1.85zM99.167 19.3v-1.73h6.892v1.73h-6.892zm-3.85-3.231v-2.023h2.206v2.023h-2.206zm0 11.387V17.57h2.206v9.886h-2.206zm-6.152.274c-1.02 0-1.89-.225-2.61-.677a4.51 4.51 0 0 1-1.656-1.867c-.378-.787-.57-1.678-.577-2.673.006-1.013.205-1.91.595-2.691a4.49 4.49 0 0 1 1.685-1.85c.726-.45 1.59-.677 2.59-.677 1.123 0 2.072.284 2.847.852.781.561 1.29 1.33 1.529 2.306l-2.197.596c-.171-.531-.455-.943-.852-1.236a2.192 2.192 0 0 0-1.354-.449c-.574 0-1.047.137-1.42.412-.371.269-.646.64-.823 1.117-.177.476-.266 1.016-.266 1.62 0 .94.211 1.7.632 2.28.421.58 1.047.869 1.877.869.585 0 1.046-.134 1.382-.403.342-.268.598-.656.769-1.162l2.252.503c-.305 1.007-.84 1.782-1.602 2.325-.763.537-1.697.806-2.801.806zm-11.245 0c-.988 0-1.852-.222-2.59-.667a4.59 4.59 0 0 1-1.721-1.84c-.403-.788-.604-1.69-.604-2.71 0-1.037.207-1.947.622-2.728a4.59 4.59 0 0 1 1.73-1.83c.739-.44 1.593-.66 2.564-.66.994 0 1.86.223 2.6.669a4.576 4.576 0 0 1 1.72 1.849c.409.78.613 1.681.613 2.7 0 1.025-.207 1.932-.622 2.719a4.59 4.59 0 0 1-1.721 1.84c-.738.44-1.602.659-2.59.659zm0-2.068c.88 0 1.532-.293 1.96-.879.427-.586.64-1.342.64-2.27 0-.958-.216-1.72-.65-2.288-.433-.574-1.083-.86-1.95-.86-.591 0-1.08.133-1.464.402-.379.262-.66.632-.842 1.108-.183.47-.275 1.016-.275 1.638 0 .958.217 1.724.65 2.298.44.567 1.083.851 1.931.851zm-9.314 1.794V14h2.206v13.456h-2.206zm-6.702.274c-1 0-1.88-.216-2.636-.65a4.628 4.628 0 0 1-1.776-1.802c-.421-.77-.632-1.654-.632-2.655 0-1.08.208-2.017.623-2.81.415-.8.992-1.42 1.73-1.858.738-.44 1.593-.66 2.563-.66 1.025 0 1.895.241 2.609.724.72.476 1.254 1.15 1.602 2.023.348.872.479 1.9.393 3.084h-2.187v-.805c-.007-1.074-.196-1.858-.568-2.353-.372-.494-.958-.741-1.758-.741-.903 0-1.574.28-2.013.842-.44.555-.66 1.37-.66 2.444 0 1 .22 1.776.66 2.325.439.55 1.08.824 1.922.824.543 0 1.01-.119 1.4-.357.397-.244.702-.595.916-1.053l2.178.66a4.415 4.415 0 0 1-1.757 2.077 4.808 4.808 0 0 1-2.609.742zM58.5 23.127V21.46h6.8v1.666h-6.8zm-8.762 4.329-4.156-13.181h2.27l3.479 11.04 3.524-11.04h2.27l-4.156 13.181h-3.231z"/><defs><clipPath id="a"><path fill="#fff" d="M9.334 7h30.639v28H9.334z"/></clipPath></defs></svg>