<svg xmlns="http://www.w3.org/2000/svg" width="126" height="42" fill="none"><g fill="#3E4A5B" clip-path="url(#a)"><path d="M16.334 20.992c0 3.865 1.608 7.589 4.437 10.241.86-1.456 1.138-3.288.632-5.14-.698-2.566-2.715-4.47-5.07-5.1z"/><path d="M17.056 16.586a13.96 13.96 0 0 0-.667 3.174c3.26.326 6.027 4.08 6.348 8.844a12.693 12.693 0 0 1-.337 3.928 14.01 14.01 0 0 0 2.374 1.31c.447-2.22.431-4.677-.142-7.156-1.118-4.846-4.08-8.562-7.576-10.104v.004zm15.098-2.327c3.54.796 7.008.27 9.696-1.216a13.663 13.663 0 0 0-1.715-2.037c-2.433 1.958-6.521 2.358-10.433.73-2.04-.848-3.724-2.123-4.917-3.586-.373.16-.741.337-1.099.533 1.766 2.645 4.772 4.744 8.468 5.576zm12.026 8.817a14.13 14.13 0 0 0 .154-2.296c-2.924.922-5.694 3.069-7.558 6.18-1.416 2.366-2.095 4.928-2.09 7.346.329-.106.65-.224.972-.354.29-2.2 1.456-4.72 3.394-6.964 1.558-1.805 3.367-3.14 5.129-3.908v-.004z"/><path d="M42.968 14.98c-3.947 1.806-9.986 1.63-15.97-.858-2.283-.95-4.331-2.143-6.077-3.48a13.808 13.808 0 0 0-2.88 3.668c4.52 1.903 8.216 8.895 8.793 17.457.063.953.086 1.891.07 2.81 1.927.49 3.885.549 5.764.227.283-3.94 2.304-8.59 5.855-12.698 1.651-1.91 3.464-3.507 5.32-4.759a13.83 13.83 0 0 0-.875-2.366zM30.773 26.043c-5.627 0-5.619-8.73 0-8.73s5.619 8.73 0 8.73zM32.81 11.59c2.236.413 4.492-.219 6.234-1.545a13.922 13.922 0 0 0-3.339-1.97 13.934 13.934 0 0 0-8.114-.8c.808 2.17 2.7 3.853 5.218 4.316zm10.601 14.393c-2.056.326-4.092 1.7-5.391 3.861a8.563 8.563 0 0 0-1.189 3.555 13.94 13.94 0 0 0 6.427-7.024c.055-.129.102-.262.153-.392z"/></g><path fill="#3E4A5B" d="m99.626 28.046 3.853-5.326-3.775-5.208h2.77l2.37 3.365 2.332-3.365h2.77l-3.775 5.208 3.872 5.326h-2.77l-2.429-3.482-2.448 3.482h-2.77zm-5.395.292c-1.066 0-2.002-.23-2.809-.692a4.93 4.93 0 0 1-1.892-1.922c-.449-.819-.673-1.762-.673-2.828 0-1.151.221-2.15.663-2.995a4.842 4.842 0 0 1 1.844-1.98c.786-.468 1.697-.702 2.73-.702 1.093 0 2.02.257 2.78.77.768.508 1.337 1.226 1.708 2.156.37.93.51 2.026.42 3.287H96.67v-.858c-.007-1.145-.208-1.98-.605-2.507-.397-.527-1.02-.79-1.873-.79-.962 0-1.677.3-2.145.897-.469.592-.703 1.46-.703 2.605 0 1.066.234 1.892.703 2.477.468.585 1.15.878 2.048.878.579 0 1.076-.127 1.492-.38.423-.26.748-.634.976-1.122l2.321.702c-.403.95-1.027 1.688-1.873 2.214a5.124 5.124 0 0 1-2.78.79zm-3.628-4.906v-1.775h7.247v1.775h-7.247zm-2.893 4.614a9.608 9.608 0 0 1-2.048.166c-.663-.014-1.258-.134-1.785-.361a2.474 2.474 0 0 1-1.2-1.103 3.141 3.141 0 0 1-.38-1.394 59.378 59.378 0 0 1-.02-1.61v-9.159h2.341v9.023c0 .422.004.793.01 1.112.013.318.082.578.205.78.234.39.608.608 1.122.653.514.046 1.099.02 1.755-.078v1.97zm-7.344-8.691V17.51h7.344v1.844h-7.344zm-6.622 8.691V17.51h2.078v2.566l-.254-.332c.13-.351.303-.67.517-.956.221-.293.485-.533.79-.722.26-.175.546-.312.859-.41.318-.103.643-.165.975-.185.331-.026.653-.013.966.04v2.194a3.017 3.017 0 0 0-1.083-.088 2.48 2.48 0 0 0-1.093.342c-.325.175-.591.4-.8.673a2.843 2.843 0 0 0-.448.936 4.108 4.108 0 0 0-.146 1.122v5.355h-2.36zm-7.406.292c-1.053 0-1.974-.237-2.76-.712a4.89 4.89 0 0 1-1.834-1.96c-.43-.839-.644-1.801-.644-2.887 0-1.106.221-2.075.663-2.907a4.889 4.889 0 0 1 1.844-1.95c.787-.469 1.697-.703 2.731-.703 1.06 0 1.983.237 2.77.712a4.876 4.876 0 0 1 1.834 1.97c.436.833.653 1.792.653 2.878 0 1.092-.22 2.058-.663 2.897a4.891 4.891 0 0 1-1.834 1.96c-.787.468-1.707.702-2.76.702zm0-2.204c.936 0 1.632-.312 2.087-.936.456-.625.683-1.431.683-2.42 0-1.02-.23-1.833-.692-2.438-.462-.611-1.155-.917-2.078-.917-.63 0-1.151.143-1.56.43-.404.28-.703.672-.898 1.18-.195.5-.293 1.082-.293 1.746 0 1.02.231 1.837.693 2.448.468.605 1.154.907 2.058.907zM53.51 28.046 49.082 14h2.419l3.707 11.763L58.963 14h2.419l-4.428 14.046H53.51z"/><defs><clipPath id="a"><path fill="#fff" d="M16.334 7h28v28h-28z"/></clipPath></defs></svg>